<mxfile host="app.diagrams.net" agent="Mozilla/5.0 (Windows NT 10.0; Win64; x64) AppleWebKit/537.36 (KHTML, like Gecko) Chrome/141.0.0.0 Safari/537.36 Edg/141.0.0.0" version="28.2.7">
  <diagram name="Page-1" id="2YBvvXClWsGukQMizWep">
    <mxGraphModel grid="1" page="1" gridSize="10" guides="1" tooltips="1" connect="1" arrows="1" fold="1" pageScale="1" pageWidth="850" pageHeight="1100" math="0" shadow="0">
      <root>
        <mxCell id="0" />
        <mxCell id="1" parent="0" />
        <mxCell id="aM9ryv3xv72pqoxQDRHE-1" value=":GUI" style="shape=umlLifeline;perimeter=lifelinePerimeter;whiteSpace=wrap;html=1;container=0;dropTarget=0;collapsible=0;recursiveResize=0;outlineConnect=0;portConstraint=eastwest;newEdgeStyle={&quot;edgeStyle&quot;:&quot;elbowEdgeStyle&quot;,&quot;elbow&quot;:&quot;vertical&quot;,&quot;curved&quot;:0,&quot;rounded&quot;:0};" vertex="1" parent="1">
          <mxGeometry x="20" y="40" width="100" height="1240" as="geometry" />
        </mxCell>
        <mxCell id="aM9ryv3xv72pqoxQDRHE-2" value="" style="html=1;points=[];perimeter=orthogonalPerimeter;outlineConnect=0;targetShapes=umlLifeline;portConstraint=eastwest;newEdgeStyle={&quot;edgeStyle&quot;:&quot;elbowEdgeStyle&quot;,&quot;elbow&quot;:&quot;vertical&quot;,&quot;curved&quot;:0,&quot;rounded&quot;:0};" vertex="1" parent="aM9ryv3xv72pqoxQDRHE-1">
          <mxGeometry x="44" y="70" width="10" height="1170" as="geometry" />
        </mxCell>
        <mxCell id="aM9ryv3xv72pqoxQDRHE-5" value=":ControllerClass" style="shape=umlLifeline;perimeter=lifelinePerimeter;whiteSpace=wrap;html=1;container=0;dropTarget=0;collapsible=0;recursiveResize=0;outlineConnect=0;portConstraint=eastwest;newEdgeStyle={&quot;edgeStyle&quot;:&quot;elbowEdgeStyle&quot;,&quot;elbow&quot;:&quot;vertical&quot;,&quot;curved&quot;:0,&quot;rounded&quot;:0};" vertex="1" parent="1">
          <mxGeometry x="180" y="40" width="100" height="1240" as="geometry" />
        </mxCell>
        <mxCell id="aM9ryv3xv72pqoxQDRHE-6" value="" style="html=1;points=[];perimeter=orthogonalPerimeter;outlineConnect=0;targetShapes=umlLifeline;portConstraint=eastwest;newEdgeStyle={&quot;edgeStyle&quot;:&quot;elbowEdgeStyle&quot;,&quot;elbow&quot;:&quot;vertical&quot;,&quot;curved&quot;:0,&quot;rounded&quot;:0};" vertex="1" parent="aM9ryv3xv72pqoxQDRHE-5">
          <mxGeometry x="45" y="90" width="10" height="1150" as="geometry" />
        </mxCell>
        <mxCell id="aM9ryv3xv72pqoxQDRHE-7" value="" style="html=1;verticalAlign=bottom;endArrow=block;edgeStyle=elbowEdgeStyle;elbow=vertical;curved=0;rounded=0;" edge="1" parent="1">
          <mxGeometry relative="1" as="geometry">
            <mxPoint x="75" y="608" as="sourcePoint" />
            <Array as="points">
              <mxPoint x="180" y="608" />
            </Array>
            <mxPoint x="225" y="608" as="targetPoint" />
          </mxGeometry>
        </mxCell>
        <mxCell id="xUXRyCdJB-aMZpH_nrXE-9" value="GetPolicies()" style="edgeLabel;html=1;align=center;verticalAlign=middle;resizable=0;points=[];" connectable="0" vertex="1" parent="aM9ryv3xv72pqoxQDRHE-7">
          <mxGeometry x="0.1093" relative="1" as="geometry">
            <mxPoint as="offset" />
          </mxGeometry>
        </mxCell>
        <mxCell id="aM9ryv3xv72pqoxQDRHE-8" value="Display List" style="html=1;verticalAlign=bottom;endArrow=open;dashed=1;endSize=8;edgeStyle=elbowEdgeStyle;elbow=vertical;curved=0;rounded=0;" edge="1" parent="1">
          <mxGeometry relative="1" as="geometry">
            <mxPoint x="75" y="791" as="targetPoint" />
            <Array as="points">
              <mxPoint x="190" y="791" />
            </Array>
            <mxPoint x="225" y="791" as="sourcePoint" />
          </mxGeometry>
        </mxCell>
        <mxCell id="xUXRyCdJB-aMZpH_nrXE-4" value=":PolicyCatalog" style="shape=umlLifeline;perimeter=lifelinePerimeter;whiteSpace=wrap;html=1;container=0;dropTarget=0;collapsible=0;recursiveResize=0;outlineConnect=0;portConstraint=eastwest;newEdgeStyle={&quot;edgeStyle&quot;:&quot;elbowEdgeStyle&quot;,&quot;elbow&quot;:&quot;vertical&quot;,&quot;curved&quot;:0,&quot;rounded&quot;:0};" vertex="1" parent="1">
          <mxGeometry x="340" y="40" width="100" height="1240" as="geometry" />
        </mxCell>
        <mxCell id="xUXRyCdJB-aMZpH_nrXE-5" value="" style="html=1;points=[];perimeter=orthogonalPerimeter;outlineConnect=0;targetShapes=umlLifeline;portConstraint=eastwest;newEdgeStyle={&quot;edgeStyle&quot;:&quot;elbowEdgeStyle&quot;,&quot;elbow&quot;:&quot;vertical&quot;,&quot;curved&quot;:0,&quot;rounded&quot;:0};" vertex="1" parent="xUXRyCdJB-aMZpH_nrXE-4">
          <mxGeometry x="45" y="110" width="10" height="1130" as="geometry" />
        </mxCell>
        <mxCell id="xUXRyCdJB-aMZpH_nrXE-6" value=":CancellationPolicies" style="shape=umlLifeline;perimeter=lifelinePerimeter;whiteSpace=wrap;html=1;container=0;dropTarget=0;collapsible=0;recursiveResize=0;outlineConnect=0;portConstraint=eastwest;newEdgeStyle={&quot;edgeStyle&quot;:&quot;elbowEdgeStyle&quot;,&quot;elbow&quot;:&quot;vertical&quot;,&quot;curved&quot;:0,&quot;rounded&quot;:0};" vertex="1" parent="1">
          <mxGeometry x="500" y="40" width="100" height="1240" as="geometry" />
        </mxCell>
        <mxCell id="xUXRyCdJB-aMZpH_nrXE-7" value="" style="html=1;points=[];perimeter=orthogonalPerimeter;outlineConnect=0;targetShapes=umlLifeline;portConstraint=eastwest;newEdgeStyle={&quot;edgeStyle&quot;:&quot;elbowEdgeStyle&quot;,&quot;elbow&quot;:&quot;vertical&quot;,&quot;curved&quot;:0,&quot;rounded&quot;:0};" vertex="1" parent="xUXRyCdJB-aMZpH_nrXE-6">
          <mxGeometry x="45" y="160" width="10" height="1080" as="geometry" />
        </mxCell>
        <mxCell id="xUXRyCdJB-aMZpH_nrXE-8" value="Admin" style="shape=umlActor;verticalLabelPosition=bottom;verticalAlign=top;html=1;outlineConnect=0;" vertex="1" parent="1">
          <mxGeometry x="-80" y="90" width="30" height="60" as="geometry" />
        </mxCell>
        <mxCell id="aM9ryv3xv72pqoxQDRHE-3" value="" style="html=1;verticalAlign=bottom;startArrow=oval;endArrow=block;startSize=8;edgeStyle=elbowEdgeStyle;elbow=vertical;curved=0;rounded=0;exitX=0.593;exitY=0.347;exitDx=0;exitDy=0;exitPerimeter=0;" edge="1" parent="1" target="aM9ryv3xv72pqoxQDRHE-2" source="xUXRyCdJB-aMZpH_nrXE-8">
          <mxGeometry relative="1" as="geometry">
            <mxPoint x="5" y="110" as="sourcePoint" />
          </mxGeometry>
        </mxCell>
        <mxCell id="xUXRyCdJB-aMZpH_nrXE-10" value="" style="html=1;verticalAlign=bottom;endArrow=block;edgeStyle=elbowEdgeStyle;elbow=vertical;curved=0;rounded=0;" edge="1" parent="1">
          <mxGeometry relative="1" as="geometry">
            <mxPoint x="236" y="628" as="sourcePoint" />
            <Array as="points">
              <mxPoint x="341" y="628" />
            </Array>
            <mxPoint x="386" y="628" as="targetPoint" />
          </mxGeometry>
        </mxCell>
        <mxCell id="xUXRyCdJB-aMZpH_nrXE-11" value="FetchPolicies()" style="edgeLabel;html=1;align=center;verticalAlign=middle;resizable=0;points=[];" connectable="0" vertex="1" parent="xUXRyCdJB-aMZpH_nrXE-10">
          <mxGeometry x="0.1093" relative="1" as="geometry">
            <mxPoint as="offset" />
          </mxGeometry>
        </mxCell>
        <mxCell id="xUXRyCdJB-aMZpH_nrXE-13" value="" style="html=1;verticalAlign=bottom;endArrow=block;edgeStyle=elbowEdgeStyle;elbow=vertical;curved=0;rounded=0;" edge="1" parent="1">
          <mxGeometry relative="1" as="geometry">
            <mxPoint x="395" y="686" as="sourcePoint" />
            <Array as="points">
              <mxPoint x="500" y="686" />
            </Array>
            <mxPoint x="545" y="686" as="targetPoint" />
          </mxGeometry>
        </mxCell>
        <mxCell id="xUXRyCdJB-aMZpH_nrXE-14" value="GetData()" style="edgeLabel;html=1;align=center;verticalAlign=middle;resizable=0;points=[];" connectable="0" vertex="1" parent="xUXRyCdJB-aMZpH_nrXE-13">
          <mxGeometry x="0.1093" relative="1" as="geometry">
            <mxPoint as="offset" />
          </mxGeometry>
        </mxCell>
        <mxCell id="xUXRyCdJB-aMZpH_nrXE-15" value="return Data" style="html=1;verticalAlign=bottom;endArrow=open;dashed=1;endSize=8;edgeStyle=elbowEdgeStyle;elbow=vertical;curved=0;rounded=0;" edge="1" parent="1">
          <mxGeometry relative="1" as="geometry">
            <mxPoint x="395" y="718" as="targetPoint" />
            <Array as="points">
              <mxPoint x="510" y="718" />
            </Array>
            <mxPoint x="545" y="718" as="sourcePoint" />
          </mxGeometry>
        </mxCell>
        <mxCell id="xUXRyCdJB-aMZpH_nrXE-17" value="for each" style="shape=umlFrame;whiteSpace=wrap;html=1;pointerEvents=0;" vertex="1" parent="1">
          <mxGeometry x="330" y="648" width="300" height="90" as="geometry" />
        </mxCell>
        <mxCell id="xUXRyCdJB-aMZpH_nrXE-18" value="return ListOfPolicies" style="html=1;verticalAlign=bottom;endArrow=open;dashed=1;endSize=8;edgeStyle=elbowEdgeStyle;elbow=vertical;curved=0;rounded=0;" edge="1" parent="1">
          <mxGeometry relative="1" as="geometry">
            <mxPoint x="234" y="768" as="targetPoint" />
            <Array as="points">
              <mxPoint x="349" y="768" />
            </Array>
            <mxPoint x="384" y="768" as="sourcePoint" />
          </mxGeometry>
        </mxCell>
        <mxCell id="xUXRyCdJB-aMZpH_nrXE-19" value="" style="html=1;verticalAlign=bottom;endArrow=block;edgeStyle=elbowEdgeStyle;elbow=vertical;curved=0;rounded=0;" edge="1" parent="1">
          <mxGeometry relative="1" as="geometry">
            <mxPoint x="75" y="130" as="sourcePoint" />
            <Array as="points">
              <mxPoint x="180" y="130" />
            </Array>
            <mxPoint x="225" y="130" as="targetPoint" />
          </mxGeometry>
        </mxCell>
        <mxCell id="xUXRyCdJB-aMZpH_nrXE-20" value="AddPolicy(data)" style="edgeLabel;html=1;align=center;verticalAlign=middle;resizable=0;points=[];" connectable="0" vertex="1" parent="xUXRyCdJB-aMZpH_nrXE-19">
          <mxGeometry x="0.1093" relative="1" as="geometry">
            <mxPoint as="offset" />
          </mxGeometry>
        </mxCell>
        <mxCell id="xUXRyCdJB-aMZpH_nrXE-21" value="" style="html=1;verticalAlign=bottom;endArrow=block;edgeStyle=elbowEdgeStyle;elbow=vertical;curved=0;rounded=0;" edge="1" parent="1" target="xUXRyCdJB-aMZpH_nrXE-4">
          <mxGeometry relative="1" as="geometry">
            <mxPoint x="230" y="150" as="sourcePoint" />
            <Array as="points">
              <mxPoint x="335" y="150" />
            </Array>
            <mxPoint x="380" y="150" as="targetPoint" />
          </mxGeometry>
        </mxCell>
        <mxCell id="xUXRyCdJB-aMZpH_nrXE-22" value="ValidateExistance(data)" style="edgeLabel;html=1;align=center;verticalAlign=middle;resizable=0;points=[];" connectable="0" vertex="1" parent="xUXRyCdJB-aMZpH_nrXE-21">
          <mxGeometry x="0.1093" relative="1" as="geometry">
            <mxPoint as="offset" />
          </mxGeometry>
        </mxCell>
        <mxCell id="xUXRyCdJB-aMZpH_nrXE-24" value="" style="html=1;verticalAlign=bottom;endArrow=block;edgeStyle=elbowEdgeStyle;elbow=vertical;curved=0;rounded=0;" edge="1" parent="1">
          <mxGeometry relative="1" as="geometry">
            <mxPoint x="390" y="198" as="sourcePoint" />
            <Array as="points">
              <mxPoint x="495" y="198" />
            </Array>
            <mxPoint x="540" y="198" as="targetPoint" />
          </mxGeometry>
        </mxCell>
        <mxCell id="xUXRyCdJB-aMZpH_nrXE-25" value="Match(data)" style="edgeLabel;html=1;align=center;verticalAlign=middle;resizable=0;points=[];" connectable="0" vertex="1" parent="xUXRyCdJB-aMZpH_nrXE-24">
          <mxGeometry x="0.1093" relative="1" as="geometry">
            <mxPoint as="offset" />
          </mxGeometry>
        </mxCell>
        <mxCell id="xUXRyCdJB-aMZpH_nrXE-26" value="return Match" style="html=1;verticalAlign=bottom;endArrow=open;dashed=1;endSize=8;edgeStyle=elbowEdgeStyle;elbow=vertical;curved=0;rounded=0;" edge="1" parent="1">
          <mxGeometry relative="1" as="geometry">
            <mxPoint x="390" y="230" as="targetPoint" />
            <Array as="points">
              <mxPoint x="505" y="230" />
            </Array>
            <mxPoint x="540" y="230" as="sourcePoint" />
          </mxGeometry>
        </mxCell>
        <mxCell id="xUXRyCdJB-aMZpH_nrXE-27" value="for each" style="shape=umlFrame;whiteSpace=wrap;html=1;pointerEvents=0;" vertex="1" parent="1">
          <mxGeometry x="325" y="160" width="300" height="90" as="geometry" />
        </mxCell>
        <mxCell id="xUXRyCdJB-aMZpH_nrXE-28" value="return Status" style="html=1;verticalAlign=bottom;endArrow=open;dashed=1;endSize=8;edgeStyle=elbowEdgeStyle;elbow=vertical;curved=0;rounded=0;" edge="1" parent="1">
          <mxGeometry relative="1" as="geometry">
            <mxPoint x="233" y="270" as="targetPoint" />
            <Array as="points">
              <mxPoint x="348" y="270" />
            </Array>
            <mxPoint x="383" y="270" as="sourcePoint" />
          </mxGeometry>
        </mxCell>
        <mxCell id="xUXRyCdJB-aMZpH_nrXE-29" value="If Status &quot;exists&quot;" style="shape=umlFrame;whiteSpace=wrap;html=1;pointerEvents=0;" vertex="1" parent="1">
          <mxGeometry x="150" y="290" width="520" height="60" as="geometry" />
        </mxCell>
        <mxCell id="xUXRyCdJB-aMZpH_nrXE-30" value="else" style="shape=umlFrame;whiteSpace=wrap;html=1;pointerEvents=0;" vertex="1" parent="1">
          <mxGeometry x="150" y="350" width="520" height="210" as="geometry" />
        </mxCell>
        <mxCell id="xUXRyCdJB-aMZpH_nrXE-31" value="Display &quot;already Exists&quot;" style="html=1;verticalAlign=bottom;endArrow=open;dashed=1;endSize=8;edgeStyle=elbowEdgeStyle;elbow=vertical;curved=0;rounded=0;" edge="1" parent="1">
          <mxGeometry relative="1" as="geometry">
            <mxPoint x="74" y="340" as="targetPoint" />
            <Array as="points">
              <mxPoint x="189" y="340" />
            </Array>
            <mxPoint x="224" y="340" as="sourcePoint" />
          </mxGeometry>
        </mxCell>
        <mxCell id="xUXRyCdJB-aMZpH_nrXE-34" value="" style="html=1;verticalAlign=bottom;endArrow=block;edgeStyle=elbowEdgeStyle;elbow=vertical;curved=0;rounded=0;" edge="1" parent="1">
          <mxGeometry relative="1" as="geometry">
            <mxPoint x="236" y="478" as="sourcePoint" />
            <Array as="points">
              <mxPoint x="341" y="478" />
            </Array>
            <mxPoint x="545" y="478" as="targetPoint" />
          </mxGeometry>
        </mxCell>
        <mxCell id="xUXRyCdJB-aMZpH_nrXE-35" value="Policy(data)" style="edgeLabel;html=1;align=center;verticalAlign=middle;resizable=0;points=[];" connectable="0" vertex="1" parent="xUXRyCdJB-aMZpH_nrXE-34">
          <mxGeometry x="0.1093" relative="1" as="geometry">
            <mxPoint as="offset" />
          </mxGeometry>
        </mxCell>
        <mxCell id="xUXRyCdJB-aMZpH_nrXE-36" value="return Policy Object" style="html=1;verticalAlign=bottom;endArrow=open;dashed=1;endSize=8;edgeStyle=elbowEdgeStyle;elbow=vertical;curved=0;rounded=0;" edge="1" parent="1">
          <mxGeometry relative="1" as="geometry">
            <mxPoint x="235" y="507.5" as="targetPoint" />
            <Array as="points">
              <mxPoint x="508" y="507.5" />
            </Array>
            <mxPoint x="543" y="507.5" as="sourcePoint" />
          </mxGeometry>
        </mxCell>
        <mxCell id="xUXRyCdJB-aMZpH_nrXE-37" value="" style="html=1;verticalAlign=bottom;endArrow=block;edgeStyle=elbowEdgeStyle;elbow=vertical;curved=0;rounded=0;" edge="1" parent="1">
          <mxGeometry relative="1" as="geometry">
            <mxPoint x="235" y="527.5" as="sourcePoint" />
            <Array as="points">
              <mxPoint x="340" y="527.5" />
            </Array>
            <mxPoint x="385" y="527.5" as="targetPoint" />
          </mxGeometry>
        </mxCell>
        <mxCell id="xUXRyCdJB-aMZpH_nrXE-38" value="AddToCatalog()" style="edgeLabel;html=1;align=center;verticalAlign=middle;resizable=0;points=[];" connectable="0" vertex="1" parent="xUXRyCdJB-aMZpH_nrXE-37">
          <mxGeometry x="0.1093" relative="1" as="geometry">
            <mxPoint as="offset" />
          </mxGeometry>
        </mxCell>
        <mxCell id="xUXRyCdJB-aMZpH_nrXE-39" value="Display &quot;added Successfully&quot;" style="html=1;verticalAlign=bottom;endArrow=open;dashed=1;endSize=8;edgeStyle=elbowEdgeStyle;elbow=vertical;curved=0;rounded=0;" edge="1" parent="1">
          <mxGeometry relative="1" as="geometry">
            <mxPoint x="74" y="544" as="targetPoint" />
            <Array as="points">
              <mxPoint x="189" y="544" />
            </Array>
            <mxPoint x="224" y="544" as="sourcePoint" />
          </mxGeometry>
        </mxCell>
        <mxCell id="xUXRyCdJB-aMZpH_nrXE-41" value="ValidateData(data)" style="html=1;align=left;spacingLeft=2;endArrow=block;rounded=0;edgeStyle=orthogonalEdgeStyle;curved=0;rounded=0;exitX=1;exitY=0;exitDx=0;exitDy=5;exitPerimeter=0;" edge="1" parent="1">
          <mxGeometry relative="1" as="geometry">
            <mxPoint x="235" y="354" as="sourcePoint" />
            <Array as="points">
              <mxPoint x="235" y="359" />
              <mxPoint x="257" y="359" />
              <mxPoint x="257" y="379" />
            </Array>
            <mxPoint x="235" y="379" as="targetPoint" />
          </mxGeometry>
        </mxCell>
        <mxCell id="xUXRyCdJB-aMZpH_nrXE-42" value="if invalid" style="shape=umlFrame;whiteSpace=wrap;html=1;pointerEvents=0;" vertex="1" parent="1">
          <mxGeometry x="160" y="390" width="450" height="60" as="geometry" />
        </mxCell>
        <mxCell id="xUXRyCdJB-aMZpH_nrXE-43" value="else" style="shape=umlFrame;whiteSpace=wrap;html=1;pointerEvents=0;" vertex="1" parent="1">
          <mxGeometry x="160" y="450" width="450" height="100" as="geometry" />
        </mxCell>
        <mxCell id="xUXRyCdJB-aMZpH_nrXE-44" value="Display &quot;Invalid Data&quot;" style="html=1;verticalAlign=bottom;endArrow=open;dashed=1;endSize=8;edgeStyle=elbowEdgeStyle;elbow=vertical;curved=0;rounded=0;" edge="1" parent="1">
          <mxGeometry relative="1" as="geometry">
            <mxPoint x="74" y="437" as="targetPoint" />
            <Array as="points">
              <mxPoint x="189" y="437" />
            </Array>
            <mxPoint x="224" y="437" as="sourcePoint" />
          </mxGeometry>
        </mxCell>
        <mxCell id="xUXRyCdJB-aMZpH_nrXE-45" style="edgeStyle=elbowEdgeStyle;rounded=0;orthogonalLoop=1;jettySize=auto;html=1;elbow=vertical;curved=0;exitX=0.5;exitY=0.5;exitDx=0;exitDy=0;exitPerimeter=0;" edge="1" parent="1" source="xUXRyCdJB-aMZpH_nrXE-8" target="aM9ryv3xv72pqoxQDRHE-2">
          <mxGeometry relative="1" as="geometry">
            <Array as="points">
              <mxPoint x="10" y="590" />
            </Array>
          </mxGeometry>
        </mxCell>
        <mxCell id="xUXRyCdJB-aMZpH_nrXE-64" value="UpdatePolicy" style="edgeLabel;html=1;align=center;verticalAlign=middle;resizable=0;points=[];" connectable="0" vertex="1" parent="xUXRyCdJB-aMZpH_nrXE-45">
          <mxGeometry x="0.7269" y="-1" relative="1" as="geometry">
            <mxPoint as="offset" />
          </mxGeometry>
        </mxCell>
        <mxCell id="xUXRyCdJB-aMZpH_nrXE-46" value="" style="html=1;verticalAlign=bottom;endArrow=block;edgeStyle=elbowEdgeStyle;elbow=vertical;curved=0;rounded=0;" edge="1" parent="1">
          <mxGeometry relative="1" as="geometry">
            <mxPoint x="74" y="820" as="sourcePoint" />
            <Array as="points">
              <mxPoint x="179" y="820" />
            </Array>
            <mxPoint x="224" y="820" as="targetPoint" />
          </mxGeometry>
        </mxCell>
        <mxCell id="xUXRyCdJB-aMZpH_nrXE-47" value="UpdatePolicy(id,data)" style="edgeLabel;html=1;align=center;verticalAlign=middle;resizable=0;points=[];" connectable="0" vertex="1" parent="xUXRyCdJB-aMZpH_nrXE-46">
          <mxGeometry x="0.1093" relative="1" as="geometry">
            <mxPoint as="offset" />
          </mxGeometry>
        </mxCell>
        <mxCell id="xUXRyCdJB-aMZpH_nrXE-48" value="" style="html=1;verticalAlign=bottom;endArrow=block;edgeStyle=elbowEdgeStyle;elbow=vertical;curved=0;rounded=0;" edge="1" parent="1">
          <mxGeometry relative="1" as="geometry">
            <mxPoint x="235" y="840" as="sourcePoint" />
            <Array as="points">
              <mxPoint x="340" y="840" />
            </Array>
            <mxPoint x="395" y="840" as="targetPoint" />
          </mxGeometry>
        </mxCell>
        <mxCell id="xUXRyCdJB-aMZpH_nrXE-49" value="FetchPolicy(id)" style="edgeLabel;html=1;align=center;verticalAlign=middle;resizable=0;points=[];" connectable="0" vertex="1" parent="xUXRyCdJB-aMZpH_nrXE-48">
          <mxGeometry x="0.1093" relative="1" as="geometry">
            <mxPoint as="offset" />
          </mxGeometry>
        </mxCell>
        <mxCell id="xUXRyCdJB-aMZpH_nrXE-50" value="" style="html=1;verticalAlign=bottom;endArrow=block;edgeStyle=elbowEdgeStyle;elbow=vertical;curved=0;rounded=0;" edge="1" parent="1">
          <mxGeometry relative="1" as="geometry">
            <mxPoint x="395" y="888" as="sourcePoint" />
            <Array as="points">
              <mxPoint x="500" y="888" />
            </Array>
            <mxPoint x="545" y="888" as="targetPoint" />
          </mxGeometry>
        </mxCell>
        <mxCell id="xUXRyCdJB-aMZpH_nrXE-51" value="Match(id)" style="edgeLabel;html=1;align=center;verticalAlign=middle;resizable=0;points=[];" connectable="0" vertex="1" parent="xUXRyCdJB-aMZpH_nrXE-50">
          <mxGeometry x="0.1093" relative="1" as="geometry">
            <mxPoint as="offset" />
          </mxGeometry>
        </mxCell>
        <mxCell id="xUXRyCdJB-aMZpH_nrXE-52" value="return Match" style="html=1;verticalAlign=bottom;endArrow=open;dashed=1;endSize=8;edgeStyle=elbowEdgeStyle;elbow=vertical;curved=0;rounded=0;" edge="1" parent="1">
          <mxGeometry relative="1" as="geometry">
            <mxPoint x="395" y="920" as="targetPoint" />
            <Array as="points">
              <mxPoint x="510" y="920" />
            </Array>
            <mxPoint x="545" y="920" as="sourcePoint" />
          </mxGeometry>
        </mxCell>
        <mxCell id="xUXRyCdJB-aMZpH_nrXE-53" value="for each" style="shape=umlFrame;whiteSpace=wrap;html=1;pointerEvents=0;" vertex="1" parent="1">
          <mxGeometry x="330" y="850" width="300" height="90" as="geometry" />
        </mxCell>
        <mxCell id="xUXRyCdJB-aMZpH_nrXE-54" value="return PolicyObject" style="html=1;verticalAlign=bottom;endArrow=open;dashed=1;endSize=8;edgeStyle=elbowEdgeStyle;elbow=vertical;curved=0;rounded=0;" edge="1" parent="1">
          <mxGeometry relative="1" as="geometry">
            <mxPoint x="238" y="960" as="targetPoint" />
            <Array as="points">
              <mxPoint x="353" y="960" />
            </Array>
            <mxPoint x="388" y="960" as="sourcePoint" />
          </mxGeometry>
        </mxCell>
        <mxCell id="xUXRyCdJB-aMZpH_nrXE-60" value="if invalid" style="shape=umlFrame;whiteSpace=wrap;html=1;pointerEvents=0;" vertex="1" parent="1">
          <mxGeometry x="163" y="1019" width="450" height="60" as="geometry" />
        </mxCell>
        <mxCell id="xUXRyCdJB-aMZpH_nrXE-61" value="else" style="shape=umlFrame;whiteSpace=wrap;html=1;pointerEvents=0;" vertex="1" parent="1">
          <mxGeometry x="163" y="1079" width="450" height="81" as="geometry" />
        </mxCell>
        <mxCell id="xUXRyCdJB-aMZpH_nrXE-62" value="Display &quot;Invalid Data&quot;" style="html=1;verticalAlign=bottom;endArrow=open;dashed=1;endSize=8;edgeStyle=elbowEdgeStyle;elbow=vertical;curved=0;rounded=0;" edge="1" parent="1">
          <mxGeometry relative="1" as="geometry">
            <mxPoint x="73" y="1069" as="targetPoint" />
            <Array as="points">
              <mxPoint x="188" y="1069" />
            </Array>
            <mxPoint x="223" y="1069" as="sourcePoint" />
          </mxGeometry>
        </mxCell>
        <mxCell id="xUXRyCdJB-aMZpH_nrXE-63" value="ValidateData(data)" style="html=1;align=left;spacingLeft=2;endArrow=block;rounded=0;edgeStyle=orthogonalEdgeStyle;curved=0;rounded=0;exitX=1;exitY=0;exitDx=0;exitDy=5;exitPerimeter=0;" edge="1" parent="1">
          <mxGeometry relative="1" as="geometry">
            <mxPoint x="235" y="976" as="sourcePoint" />
            <Array as="points">
              <mxPoint x="235" y="981" />
              <mxPoint x="257" y="981" />
              <mxPoint x="257" y="1001" />
            </Array>
            <mxPoint x="235" y="1001" as="targetPoint" />
          </mxGeometry>
        </mxCell>
        <mxCell id="xUXRyCdJB-aMZpH_nrXE-65" value="" style="html=1;verticalAlign=bottom;endArrow=block;edgeStyle=elbowEdgeStyle;elbow=vertical;curved=0;rounded=0;" edge="1" parent="1" target="xUXRyCdJB-aMZpH_nrXE-7">
          <mxGeometry relative="1" as="geometry">
            <mxPoint x="236" y="1111" as="sourcePoint" />
            <Array as="points">
              <mxPoint x="341" y="1111" />
            </Array>
            <mxPoint x="386" y="1111" as="targetPoint" />
          </mxGeometry>
        </mxCell>
        <mxCell id="xUXRyCdJB-aMZpH_nrXE-66" value="UpdatePolicy(data)" style="edgeLabel;html=1;align=center;verticalAlign=middle;resizable=0;points=[];" connectable="0" vertex="1" parent="xUXRyCdJB-aMZpH_nrXE-65">
          <mxGeometry x="0.1093" relative="1" as="geometry">
            <mxPoint as="offset" />
          </mxGeometry>
        </mxCell>
        <mxCell id="xUXRyCdJB-aMZpH_nrXE-67" value="Display &quot;Update Success&quot;" style="html=1;verticalAlign=bottom;endArrow=open;dashed=1;endSize=8;edgeStyle=elbowEdgeStyle;elbow=vertical;curved=0;rounded=0;" edge="1" parent="1">
          <mxGeometry relative="1" as="geometry">
            <mxPoint x="73" y="1150" as="targetPoint" />
            <Array as="points">
              <mxPoint x="188" y="1150" />
            </Array>
            <mxPoint x="223" y="1150" as="sourcePoint" />
          </mxGeometry>
        </mxCell>
      </root>
    </mxGraphModel>
  </diagram>
</mxfile>
